<svg width="64" height="64" viewBox="0 0 64 64" fill="none" xmlns="http://www.w3.org/2000/svg">
<g clip-path="url(#clip0_651_395)">
<path d="M8.98544 35.3979C9.00435 36.0463 9.0327 36.6928 9.04026 37.3412C9.04404 37.6361 9.00624 37.931 8.98544 38.2259C8.98544 37.2826 8.98544 36.3412 8.98544 35.3979Z" fill="black"/>
<path d="M9.15371 36.723C9.13103 35.2108 9.22743 33.7041 9.53178 32.2259C9.94388 30.2278 10.6131 28.3166 11.6603 26.5472C13.1348 24.0501 15.131 22.1049 17.6981 20.7382C19.1424 19.9688 20.683 19.5 22.2936 19.2429C24.0271 18.965 25.7359 19.0803 27.3976 19.6436C28.7889 20.1162 30.1575 20.6512 31.5412 21.1465C32.2804 21.4111 33.0195 21.6739 33.8229 21.6947C34.7038 21.7193 35.511 21.4471 36.3182 21.1503C37.6811 20.6474 39.0327 20.1068 40.4127 19.6531C41.5601 19.2769 42.7378 18.965 43.9628 18.9593C44.787 18.9556 45.6225 18.9178 46.4354 19.0274C49.3711 19.4187 52.0573 20.4281 54.3106 22.4149C55.063 23.0784 55.7189 23.8289 56.3238 24.6266C56.4146 24.7476 56.4259 24.8006 56.2671 24.9083C55.7341 25.2694 55.2029 25.6399 54.7151 26.0576C52.6887 27.7987 51.2123 29.9121 50.4637 32.4905C50.1783 33.4697 50.01 34.4735 50.0025 35.5019C49.9949 36.483 49.9703 37.4697 50.1537 38.4357C50.2974 39.1937 50.4845 39.9537 50.7378 40.6815C51.7284 43.517 53.5772 45.6815 56.0894 47.2958C56.6622 47.6626 57.2898 47.9461 57.8966 48.2599C58.0214 48.3242 58.0157 48.3828 57.9779 48.5C56.908 51.7457 55.3201 54.7249 53.3352 57.5038C52.3012 58.9499 51.2615 60.3885 49.9666 61.621C49.0214 62.5189 47.9779 63.2561 46.7322 63.6852C45.6925 64.0425 44.6282 64.1106 43.5412 63.9858C42.3598 63.8497 41.2785 63.4074 40.1972 62.9499C39.2142 62.534 38.2293 62.12 37.1726 61.9045C35.8399 61.6342 34.5053 61.5794 33.1575 61.7609C31.6301 61.9669 30.2123 62.5189 28.8097 63.1219C27.8702 63.5265 26.9042 63.8346 25.8891 64.0217C24.0082 64.3677 22.3843 63.8138 20.8815 62.7457C19.6717 61.8856 18.649 60.827 17.7567 59.655C16.7341 58.3109 15.7151 56.9612 14.7908 55.5491C13.39 53.4092 12.286 51.1087 11.4089 48.706C10.9439 47.4319 10.5261 46.1427 10.1934 44.827C9.74539 43.0595 9.38433 41.2788 9.25012 39.4603C9.18396 38.5529 9.18585 37.6399 9.1556 36.7306L9.15371 36.723Z" fill="black"/>
<path d="M21.5713 15.9633C23.3653 15.6514 25.0931 15.7327 26.8511 15.9784C26.8511 15.7913 26.8549 15.6608 26.8511 15.5304C26.8095 14.245 26.8228 12.9539 26.7037 11.6741C26.6073 10.6571 26.4163 9.63627 26.146 8.6514C25.4107 5.97087 23.9192 3.79317 21.6129 2.19582C20.0099 1.08618 18.2613 0.313023 16.3199 0.0956313C15.2689 -0.021571 14.1933 -0.021571 13.1366 0.0445916C10.2594 0.224176 7.83411 1.45669 5.75282 3.39809C4.47116 4.59469 3.58647 6.05026 2.98723 7.69487C2.44847 9.16936 2.19517 10.6949 2.10443 12.2506C2.04016 13.3074 2.03637 18.1467 2.00046 19.2053C1.99479 19.3754 2.04016 19.4283 2.2273 19.4283C3.2481 19.4283 4.27078 19.4151 5.28968 19.468C5.87947 19.4983 6.46549 19.6476 7.0515 19.7402C7.10443 19.7478 7.15736 19.7478 7.23486 19.7535C7.2273 19.6401 7.21596 19.5399 7.21407 19.4416C7.19138 18.0125 7.15736 12.8026 7.38609 11.3849C7.57702 10.1996 7.86246 9.04459 8.54299 8.03136C9.33883 6.84799 10.4541 6.0635 11.7793 5.58145C14.0496 4.75537 16.2368 4.97654 18.3105 6.20149C19.8492 7.10886 20.7679 8.46803 21.1971 10.192C21.4447 11.192 21.5279 12.2034 21.5619 13.2223C21.5921 14.1145 21.5676 15.0068 21.5676 15.9633H21.5713Z" fill="black"/>
</g>
<defs>
<clipPath id="clip0_651_395">
<rect width="64" height="64" fill="white"/>
</clipPath>
</defs>
</svg>
