<svg width="38" height="38" viewBox="0 0 38 38" fill="none" xmlns="http://www.w3.org/2000/svg">
<path d="M31.8223 0H6.17748C5.3204 0 4.62549 0.694836 4.62549 1.55199V36.4479C4.62549 37.305 5.32032 37.9999 6.17748 37.9999H31.8218C31.8224 37.9999 31.8229 38 31.8236 38C32.533 38 33.2102 37.4419 33.3743 36.7355C33.3743 36.7355 33.3743 2.64196 33.3743 1.55199C33.3743 0.694836 32.6794 0 31.8223 0ZM17.3628 32.8903H11.3004C10.4433 32.8903 9.74836 32.1955 9.74836 31.3383C9.74836 30.4813 10.4432 29.7864 11.3004 29.7864H17.3628C18.2198 29.7864 18.9147 30.4813 18.9147 31.3383C18.9147 32.1955 18.2199 32.8903 17.3628 32.8903ZM26.6995 27.6782H11.3004C10.4433 27.6782 9.74836 26.9833 9.74836 26.1262C9.74836 25.2691 10.4432 24.5742 11.3004 24.5742H26.6995C27.5566 24.5742 28.2515 25.269 28.2515 26.1262C28.2515 26.9833 27.5566 27.6782 26.6995 27.6782ZM26.6995 22.466H11.3004C10.4433 22.466 9.74836 21.7712 9.74836 20.914C9.74836 20.0569 10.4432 19.362 11.3004 19.362H26.6995C27.5566 19.362 28.2515 20.0569 28.2515 20.914C28.2515 21.7712 27.5566 22.466 26.6995 22.466ZM28.2515 15.4217C28.2515 16.2788 27.5566 16.9737 26.6995 16.9737H11.3004C10.4433 16.9737 9.74836 16.2788 9.74836 15.4217V6.66158C9.74836 5.8045 10.4432 5.10959 11.3004 5.10959H26.6995C27.5566 5.10959 28.2515 5.80443 28.2515 6.66158V15.4217Z" fill="#231F20"/>
</svg>
