<svg width="42" height="42" viewBox="0 0 42 42" fill="none" xmlns="http://www.w3.org/2000/svg">
<path d="M21.167 9.2611C21.167 8.701 21.167 8.42096 21.2948 8.19105C21.3988 8.00376 21.6002 7.8253 21.7986 7.7444C22.0421 7.64507 22.2902 7.67499 22.7867 7.73486C24.5945 7.95282 26.3452 8.5342 27.9317 9.45017C29.9884 10.6376 31.6963 12.3455 32.884 14.4023C34.0714 16.459 34.6965 18.7922 34.6965 21.167C34.6965 23.5419 34.0714 25.8751 32.884 27.9318C31.6963 29.9885 29.9884 31.6963 27.9317 32.884C25.875 34.0714 23.5419 34.6965 21.167 34.6965C18.7921 34.6965 16.459 34.0714 14.4023 32.884C12.8158 31.9678 11.4368 30.7423 10.3442 29.2858C10.0442 28.8858 9.89417 28.6858 9.8584 28.4254C9.82927 28.2129 9.88318 27.9494 9.99334 27.7656C10.1286 27.5401 10.3711 27.4001 10.8562 27.12L20.3552 21.6356C20.6508 21.4649 20.7988 21.3797 20.9063 21.2602C21.0015 21.1544 21.0734 21.0299 21.1174 20.8949C21.167 20.742 21.167 20.5711 21.167 20.2297V9.2611Z" fill="black"/>
<path d="M21.167 9.2611C21.167 8.701 21.167 8.42096 21.2948 8.19105C21.3988 8.00376 21.6002 7.8253 21.7986 7.7444C22.0421 7.64507 22.2902 7.67499 22.7867 7.73486C24.5945 7.95282 26.3452 8.5342 27.9317 9.45017C29.9884 10.6376 31.6963 12.3455 32.884 14.4023C34.0714 16.459 34.6965 18.7922 34.6965 21.167C34.6965 23.5419 34.0714 25.8751 32.884 27.9318C31.6963 29.9885 29.9884 31.6963 27.9317 32.884C25.875 34.0714 23.5419 34.6965 21.167 34.6965C18.7921 34.6965 16.459 34.0714 14.4023 32.884C12.8158 31.9678 11.4368 30.7423 10.3442 29.2858C10.0442 28.8858 9.89417 28.6858 9.8584 28.4254C9.82927 28.2129 9.88318 27.9494 9.99334 27.7656C10.1286 27.5401 10.3711 27.4001 10.8562 27.12L20.3552 21.6356C20.6508 21.4649 20.7988 21.3797 20.9063 21.2602C21.0015 21.1544 21.0734 21.0299 21.1174 20.8949C21.167 20.742 21.167 20.5711 21.167 20.2297V9.2611Z" stroke="black" stroke-width="2.25491"/>
<path d="M21.1667 40.3335C31.7522 40.3335 40.3335 31.7522 40.3335 21.1667C40.3335 10.5812 31.7522 2 21.1667 2C10.5812 2 2 10.5812 2 21.1667C2 31.7522 10.5812 40.3335 21.1667 40.3335Z" stroke="black" stroke-width="2.25491"/>
</svg>
