<svg width="38" height="38" viewBox="0 0 38 38" fill="none" xmlns="http://www.w3.org/2000/svg">
<g clip-path="url(#clip0_623_440)">
<path d="M1.1875 0C1.50244 0 1.80449 0.125111 2.02719 0.347811C2.24989 0.57051 2.375 0.872555 2.375 1.1875V36.8125C2.375 37.1274 2.24989 37.4295 2.02719 37.6522C1.80449 37.8749 1.50244 38 1.1875 38C0.872555 38 0.57051 37.8749 0.347811 37.6522C0.125111 37.4295 0 37.1274 0 36.8125V1.1875C0 0.872555 0.125111 0.57051 0.347811 0.347811C0.57051 0.125111 0.872555 0 1.1875 0ZM4.75 3.5625C4.75 3.24756 4.87511 2.94551 5.09781 2.72281C5.32051 2.50011 5.62256 2.375 5.9375 2.375H15.4375C15.7524 2.375 16.0545 2.50011 16.2772 2.72281C16.4999 2.94551 16.625 3.24756 16.625 3.5625V5.9375C16.625 6.25244 16.4999 6.55449 16.2772 6.77719C16.0545 6.99989 15.7524 7.125 15.4375 7.125H5.9375C5.62256 7.125 5.32051 6.99989 5.09781 6.77719C4.87511 6.55449 4.75 6.25244 4.75 5.9375V3.5625ZM9.5 13.0625C9.5 12.7476 9.62511 12.4455 9.84781 12.2228C10.0705 12.0001 10.3726 11.875 10.6875 11.875H27.3125C27.6274 11.875 27.9295 12.0001 28.1522 12.2228C28.3749 12.4455 28.5 12.7476 28.5 13.0625V15.4375C28.5 15.7524 28.3749 16.0545 28.1522 16.2772C27.9295 16.4999 27.6274 16.625 27.3125 16.625H10.6875C10.3726 16.625 10.0705 16.4999 9.84781 16.2772C9.62511 16.0545 9.5 15.7524 9.5 15.4375V13.0625ZM14.25 22.5625C14.25 22.2476 14.3751 21.9455 14.5978 21.7228C14.8205 21.5001 15.1226 21.375 15.4375 21.375H29.6875C30.0024 21.375 30.3045 21.5001 30.5272 21.7228C30.7499 21.9455 30.875 22.2476 30.875 22.5625V24.9375C30.875 25.2524 30.7499 25.5545 30.5272 25.7772C30.3045 25.9999 30.0024 26.125 29.6875 26.125H15.4375C15.1226 26.125 14.8205 25.9999 14.5978 25.7772C14.3751 25.5545 14.25 25.2524 14.25 24.9375V22.5625ZM19 32.0625C19 31.7476 19.1251 31.4455 19.3478 31.2228C19.5705 31.0001 19.8726 30.875 20.1875 30.875H36.8125C37.1274 30.875 37.4295 31.0001 37.6522 31.2228C37.8749 31.4455 38 31.7476 38 32.0625V34.4375C38 34.7524 37.8749 35.0545 37.6522 35.2772C37.4295 35.4999 37.1274 35.625 36.8125 35.625H20.1875C19.8726 35.625 19.5705 35.4999 19.3478 35.2772C19.1251 35.0545 19 34.7524 19 34.4375V32.0625Z" fill="black"/>
</g>
<defs>
<clipPath id="clip0_623_440">
<rect width="38" height="38" fill="white"/>
</clipPath>
</defs>
</svg>
